<!--?xml version="1.0" standalone="no"?-->
              <svg id="sw-js-blob-svg" viewBox="0 0 100 100" xmlns="http://www.w3.org/2000/svg" version="1.1">
                    <defs> 
                        <linearGradient id="sw-gradient" x1="0" x2="1" y1="1" y2="0">
                            <stop id="stop1" stop-color="rgba(248, 117, 55, 1)" offset="0%"></stop>
                            <stop id="stop2" stop-color="rgba(251, 168, 31, 1)" offset="100%"></stop>
                        </linearGradient>
                    </defs>
                <path fill="url(#sw-gradient)" d="M23.1,-30.3C26.6,-24.6,23.9,-14.2,25,-4.8C26.2,4.5,31.2,12.7,29.3,17.9C27.5,23,18.7,25.1,10.4,27.8C2.1,30.5,-5.8,34,-11.5,31.8C-17.2,29.6,-20.7,21.8,-24.8,14.5C-28.9,7.1,-33.5,0.2,-31.8,-4.9C-30.1,-10,-22,-13.3,-15.7,-18.5C-9.3,-23.7,-4.7,-30.7,2.6,-33.8C9.8,-36.9,19.6,-35.9,23.1,-30.3Z" width="100%" height="100%" transform="translate(50 50)" stroke-width="0" style="transition: all 0.3s ease 0s;"></path>
              </svg>